<svg width="32" height="32" viewBox="0 0 32 32" fill="none" xmlns="http://www.w3.org/2000/svg">
<g clip-path="url(#clip0_4527_53068)">
<path fill-rule="evenodd" clip-rule="evenodd" d="M10.9401 10C10.421 10 10 10.4108 10 10.9169V21.8834C10 22.3895 10.421 22.8 10.9401 22.8H21.7793C22.2986 22.8 22.7194 22.3896 22.7194 21.8832V10.9169C22.7194 10.4108 22.2986 10 21.7793 10H10.9401ZM13.8548 14.9351V20.715H11.9336V14.9351H13.8548ZM13.9813 13.1476C13.9813 13.7023 13.5643 14.1461 12.8945 14.1461H12.8819C12.2371 14.1461 11.8203 13.7023 11.8203 13.1476C11.8203 12.5804 12.2497 12.1489 12.9073 12.1489C13.5643 12.1489 13.9688 12.5804 13.9813 13.1476ZM16.8391 20.715H14.9181C14.9182 20.6809 14.9432 15.4757 14.9182 14.9353H16.8392V15.7535C17.0945 15.3597 17.5516 14.7996 18.5707 14.7996C19.8346 14.7996 20.7822 15.6257 20.7822 17.401V20.715H18.8613V17.6233C18.8613 16.8462 18.5831 16.3162 17.8881 16.3162C17.3573 16.3162 17.0412 16.6736 16.9023 17.0189C16.8516 17.1421 16.8391 17.3151 16.8391 17.4876V20.715Z" fill="#999999"/>
<path d="M15.9999 31.3504C24.4775 31.3504 31.3499 24.478 31.3499 16.0004C31.3499 7.52282 24.4775 0.650391 15.9999 0.650391C7.52233 0.650391 0.649902 7.52282 0.649902 16.0004C0.649902 24.478 7.52233 31.3504 15.9999 31.3504Z" stroke="#999999" stroke-width="1.3"/>
</g>
<defs>
<clipPath id="clip0_4527_53068">
<rect width="32" height="32" fill="white"/>
</clipPath>
</defs>
</svg>
