<svg width="32" height="32" viewBox="0 0 32 32" fill="none" xmlns="http://www.w3.org/2000/svg">
<g clip-path="url(#clip0_4527_53071)">
<path d="M15.9999 31.3504C24.4775 31.3504 31.3499 24.478 31.3499 16.0004C31.3499 7.52282 24.4775 0.650391 15.9999 0.650391C7.52233 0.650391 0.649902 7.52282 0.649902 16.0004C0.649902 24.478 7.52233 31.3504 15.9999 31.3504Z" stroke="#999999" stroke-width="1.3"/>
<path fill-rule="evenodd" clip-rule="evenodd" d="M23.5314 13.3222C23.5314 12.0393 22.4924 11 21.2098 11H10.3216C9.03912 11 8 12.0393 8 13.3222V19.5492C8 20.8314 9.03892 21.8714 10.3216 21.8714H21.21C22.4924 21.8714 23.5316 20.8314 23.5316 19.5492V13.3222H23.5314ZM14.2128 19.0629V13.2145L18.6483 16.1383L14.2128 19.0629Z" fill="#999999"/>
</g>
<defs>
<clipPath id="clip0_4527_53071">
<rect width="32" height="32" fill="white"/>
</clipPath>
</defs>
</svg>
