<svg width="16" height="16" viewBox="0 0 16 16" fill="none" xmlns="http://www.w3.org/2000/svg">
<path d="M3.76417 1.95049C3.55599 1.73494 3.4408 1.44625 3.4434 1.1466C3.44601 0.846945 3.5662 0.560302 3.77809 0.348407C3.98999 0.136512 4.27663 0.016319 4.57629 0.0137151C4.87594 0.0111112 5.16463 0.126305 5.38017 0.334485L12.2373 7.19163C12.4456 7.39989 12.5655 7.68054 12.5718 7.97503C12.5782 8.26952 12.4707 8.5551 12.2716 8.7722L5.98589 15.6293C5.88443 15.74 5.76218 15.8295 5.62612 15.8929C5.49006 15.9562 5.34285 15.9922 5.1929 15.9986C4.89005 16.0117 4.59442 15.904 4.37103 15.6991C4.14764 15.4942 4.0148 15.2089 4.00173 14.9061C3.98865 14.6032 4.09642 14.3076 4.30132 14.0842L9.8476 8.03391L3.76417 1.95049Z" fill="#FF5693"/>
</svg>
