<svg width="16" height="16" viewBox="0 0 16 16" fill="none" xmlns="http://www.w3.org/2000/svg">
<path d="M1.95049 3.76417C1.73494 3.55599 1.44625 3.4408 1.1466 3.4434C0.846945 3.44601 0.560302 3.5662 0.348407 3.77809C0.136512 3.98999 0.016319 4.27663 0.0137151 4.57629C0.0111112 4.87594 0.126305 5.16463 0.334485 5.38017L7.19163 12.2373C7.39989 12.4456 7.68054 12.5655 7.97503 12.5718C8.26952 12.5782 8.5551 12.4707 8.7722 12.2716L15.6293 5.98589C15.74 5.88443 15.8295 5.76218 15.8929 5.62612C15.9562 5.49006 15.9922 5.34285 15.9986 5.1929C16.0117 4.89005 15.904 4.59442 15.6991 4.37103C15.4942 4.14764 15.2089 4.0148 14.9061 4.00173C14.6032 3.98865 14.3076 4.09642 14.0842 4.30132L8.03391 9.8476L1.95049 3.76417Z" fill="#FF5693"/>
</svg>
