<svg width="16" height="12" viewBox="0 0 16 12" fill="none" xmlns="http://www.w3.org/2000/svg">
<path d="M0.541284 0.132403C1.67463 0.790061 2.80577 1.44493 3.97934 2.12534C3.95632 2.18828 3.88221 2.37653 3.90807 2.31143C4.67705 2.78445 5.37647 3.18552 6.03358 3.64208C6.11995 3.70097 6.0004 4.05066 5.97591 4.26784C7.34368 4.40532 9.0073 5.54175 8.6754 6.25489C9.21639 6.22102 10.0896 5.61326 9.94056 6.85049C10.4257 6.79703 10.3578 6.85435 10.7441 7.31012C10.9075 7.50265 11.4238 7.40236 11.8545 7.44085C11.7761 7.74504 11.7157 7.98564 11.6215 8.35617C12.1867 8.08734 12.577 7.73844 13.0105 8.56721C13.2799 9.08687 14.2146 9.32737 14.9021 9.53962C15.609 9.7593 15.6729 9.83564 15.1955 10.4775C15.0587 10.6605 15.0286 10.9225 14.915 11.2451C13.863 10.6052 12.7526 10.3529 11.9239 9.36353C11.3355 8.65982 10.2098 8.42845 9.38567 7.8903C8.35952 7.22574 7.41216 6.4368 6.39626 5.75071C5.98762 5.47446 5.30764 5.44548 5.08312 5.09342C4.67928 4.45319 4.0681 4.25809 3.49709 3.92362C2.55759 3.37617 1.58416 2.83716 0.776765 2.12388C0.388949 1.7819 0.351537 1.04551 0.154677 0.491837C0.28332 0.373706 0.412002 0.255528 0.540642 0.137354L0.541284 0.132403Z" fill="#FF5693"/>
</svg>
