<svg width="189" height="69" viewBox="0 0 189 69" fill="none" xmlns="http://www.w3.org/2000/svg">
<path d="M82.1263 12.7232C83.7813 12.3193 85.4846 12.2069 87.0332 11.2958C87.9607 10.7509 89.2634 10.7203 90.3984 10.4701C90.5875 10.4304 90.8863 10.5136 90.9648 10.4222C91.6636 9.62843 92.263 9.84612 92.8795 10.6475C92.7281 9.71399 93.9889 9.11811 95.1688 9.29437C95.6155 9.36199 96.1255 9.19347 96.5927 9.08089C97.1167 8.95837 97.6354 8.79288 98.1446 8.61653C98.5564 8.47418 98.9344 8.22463 99.352 8.13706C101.181 7.7543 103.03 7.44847 104.852 7.04267C107.302 6.49946 109.734 5.88287 112.177 5.32062C112.632 5.21719 113.126 5.27192 113.588 5.1837C114.462 5.00843 115.311 4.72101 116.19 4.59271C117.36 4.4219 118.549 4.39933 119.714 4.23295C120.555 4.1126 121.37 3.83676 122.205 3.66953C122.795 3.55191 123.401 3.49593 124 3.42482C125.111 3.28787 126.224 3.08345 127.339 3.05297C128.225 3.03075 129.086 3.06655 129.975 2.86987C130.959 2.65138 131.986 2.59053 132.995 2.51977C133.217 2.5042 133.456 2.72435 133.748 2.8676C134.099 2.02743 134.961 2.4469 135.699 2.56291C135.874 2.59198 135.969 2.95383 136.069 3.10949C136.363 2.89646 136.751 2.6142 137.139 2.33195C137.277 2.55871 137.416 2.78939 137.598 3.09465C138.341 1.83727 139.391 1.95988 140.522 2.5567C140.611 2.60273 140.745 2.62027 140.843 2.59409C142.631 2.15631 144.413 2.50249 146.187 2.56067C146.805 2.5786 147.398 2.99082 147.751 3.12767C148.581 2.95305 149.322 2.63754 150.018 2.69079C151.281 2.78312 152.519 3.09568 153.867 3.33326C153.866 3.32152 153.832 3.53878 153.763 3.92593L154.559 3.26424C154.551 3.34825 154.547 3.43175 154.537 3.51183C155.226 3.49854 155.973 3.32481 156.586 3.50941C157.436 3.76406 158.177 4.28725 158.828 4.62606C159.391 4.41244 159.953 4.19492 160.51 3.98182C160.581 4.02967 160.657 4.07709 160.728 4.12502C160.568 4.40698 160.409 4.69277 160.25 4.97465C160.38 4.95308 160.509 4.93143 160.643 4.90941C161.039 4.86768 161.443 4.85677 161.824 4.76904C162.452 4.62776 162.746 4.66003 163.171 5.27982C163.437 5.67118 164.719 5.44495 165.518 5.59807C165.949 5.67925 166.324 5.97995 166.941 6.29073C167.176 6.30552 167.798 6.24777 168.331 6.41322C168.726 6.53376 169.003 6.95159 169.28 7.28634C169.791 7.54107 170.732 6.78515 170.988 7.88565C171.013 7.99381 171.657 7.93775 171.988 8.02945C172.554 8.18341 173.383 8.2463 173.596 8.59969C174.232 9.6603 175.482 9.79751 176.436 10.3339C177.73 11.0638 179.347 11.3799 180.003 12.8419C180.043 12.9366 180.316 12.9394 180.561 13.0125L179.789 13.6518C180.361 13.5678 180.784 13.5033 181.209 13.4387C181.159 13.5113 181.105 13.5803 181.056 13.6527C181.642 14.0855 182.225 14.5225 182.755 14.9177C182.652 15.1579 182.539 15.4152 182.43 15.676C182.805 15.7748 183.181 15.8776 183.634 16C183.629 16.4594 183.62 16.955 184.44 17.3551C185.308 17.778 185.956 18.5088 186.025 19.6647C186.082 20.5727 186.836 21.4347 187.287 22.3249C186.858 22.4334 186.525 22.52 186.203 22.6014C186.647 23.1401 187.289 23.5947 187.418 24.1547C187.573 24.8308 187.292 25.5923 187.186 26.4185C187.289 26.4354 187.557 26.4744 188.071 26.5507C186.67 27.3196 186.587 28.2028 187.265 29.0848C186.875 29.3514 186.543 29.5803 186.212 29.8091C186.249 29.8725 186.283 29.9401 186.32 30.0035C186.514 29.8841 186.712 29.7643 186.907 29.6488C186.918 29.794 186.925 29.9397 186.935 30.085L186.029 30.8333C186.112 30.9512 186.388 31.1912 186.332 31.2879C185.896 32.07 185.073 32.8096 185.001 33.5965C184.912 34.5475 183.663 34.7505 183.737 35.1186C183.982 36.3588 183.009 36.8017 182.273 37.4134C181.844 37.7712 181.309 38.0294 180.793 38.349L181.171 38.7205C180.873 38.7796 180.637 38.8283 180.293 38.9002C180.501 39.0365 180.637 39.121 180.773 39.2095C180.155 39.7179 179.607 40.3613 178.891 40.7058C178.075 41.0965 177.292 41.3927 177.11 42.3733C176.797 42.3233 176.47 42.2707 176.143 42.2181C176.213 42.2938 176.283 42.3735 176.353 42.4492C175.944 42.7851 175.57 43.1608 175.126 43.4529C174.061 44.1548 172.811 44.6862 171.929 45.5349C171.278 46.1575 170.164 45.8517 169.698 46.8622C169.477 47.3445 168.26 47.445 167.521 47.7684C167.218 47.8993 167.01 48.2219 166.707 48.3527C164.848 49.1541 162.973 49.9373 161.103 50.7123C159.733 51.2801 158.365 51.8635 156.969 52.3748C155.749 52.8199 154.482 53.1514 153.246 53.5665C152.779 53.7227 152.36 54.0042 151.893 54.1642C151.55 54.2836 151.151 54.2623 150.803 54.3781C149.345 54.8524 147.919 55.4261 146.44 55.8274C145.149 56.1772 143.777 56.2665 142.482 56.6168C140.861 57.0528 139.296 57.6846 137.676 58.1324C137.01 58.3175 136.259 58.2424 135.446 58.2886C135.433 58.3374 135.374 58.5691 135.325 58.7682C134.538 58.8512 133.802 58.917 133.074 59.0175C132.471 59.1008 131.872 59.2154 131.278 59.3375C130.972 59.4013 130.685 59.5543 130.379 59.6103C128.576 59.9547 126.764 60.2407 124.972 60.6316C123.442 60.967 121.944 61.4454 120.421 61.8118C118.848 62.1914 117.268 62.5954 115.666 62.8394C113.74 63.1297 111.783 63.2569 109.839 63.4619C108.439 63.6096 106.915 63.5091 105.67 64.0006C104.192 64.5797 102.688 64.4574 101.216 64.7591C99.3739 65.1354 97.4516 65.1719 95.5661 65.351C95.1394 65.3921 94.7101 65.4096 94.2609 65.4847C93.5651 65.5581 92.8732 65.6271 92.1788 65.7122C90.8377 65.8813 89.5012 66.0935 88.1572 66.2353C85.222 66.5488 82.2905 66.8975 79.3484 67.1049C77.458 67.237 75.5794 67.2729 73.6902 67.5829C72.3852 67.7997 71.0041 67.5458 69.6561 67.5653C68.9492 67.5765 68.2411 67.7422 67.5293 67.7896C66.494 67.8552 65.4565 67.8578 64.4242 67.9113C62.3243 68.0141 60.2236 68.1525 58.1216 68.2357C56.536 68.2961 54.9491 68.3013 53.3673 68.3138C51.6011 68.33 49.8292 68.3744 48.064 68.3152C46.4799 68.2647 44.9042 68.0432 43.3153 67.9892C42.2472 67.9515 41.1683 68.1048 40.0968 68.119C39.6404 68.1275 39.1848 67.9777 38.7199 67.9476C38.016 67.9032 37.3065 67.9305 36.6065 67.8817C35.5833 67.8116 34.5624 67.7214 33.5476 67.6069C32.8443 67.5268 32.1498 67.3626 31.4466 67.2825C30.5339 67.1769 29.6043 67.1602 28.697 67.0225C27.3338 66.8142 25.9919 66.5165 24.6353 66.2876C24.2323 66.2194 23.7991 66.2809 23.3855 66.2375C21.2956 66.0187 19.2654 65.6157 17.3329 64.8462C16.8003 64.6333 16.1604 64.6533 15.5901 64.4998C15.1014 64.3693 14.6542 64.1316 14.1717 63.9768C13.4384 63.7376 12.6911 63.5315 11.9469 63.3133C11.1754 63.0861 10.3524 62.9553 9.64843 62.6181C8.8655 62.2417 8.21736 61.6414 7.45993 61.2148C6.52054 60.6887 5.35906 60.3919 4.58913 59.7214C3.51508 58.7941 2.69626 57.6183 1.80306 56.5295C1.61097 56.2926 1.63266 55.9145 1.43269 55.6863C0.221304 54.2908 -0.119196 52.7718 0.457006 51.0217C0.587011 50.6282 0.146504 50.1207 0.169043 49.6673C0.206795 48.9828 0.327405 48.25 1.25179 47.9666C0.489061 46.864 2.12094 44.2824 4.33936 43.2176C3.90177 42.1124 4.78575 40.8204 5.89839 40.4459C6.29098 40.1236 6.69827 39.8156 7.06619 39.4682C7.45424 39.1028 7.72737 38.6071 8.17793 38.3341C9.02966 37.8209 9.50275 37.0945 10.0684 36.3702C10.5408 35.7625 11.4126 35.3975 12.1159 34.9356C12.7368 34.5259 13.3973 34.1595 13.9887 33.7213C14.9512 33.0065 15.8342 32.2052 16.8221 31.5234C18.0233 30.6964 19.2846 29.9383 20.5623 29.2101C20.7947 29.0787 21.2246 29.2352 21.4014 29.2442C21.8605 28.7606 22.3214 27.8772 22.7739 27.873C24.0306 27.8631 24.4104 26.7113 25.5223 26.4951C26.4229 26.3209 27.2717 25.6538 28.0148 25.069C30.0162 23.489 32.6453 22.9823 34.8155 21.6693C35.3362 21.3533 36.0763 21.0734 36.7341 20.8063C37.48 20.4981 38.0825 19.8727 39.0977 20.2009C39.3433 20.2779 39.9705 19.5945 40.3283 19.1928C40.7534 18.7207 41.1195 18.3971 41.6149 18.883C43.0373 18.1514 44.3926 17.3675 45.8306 16.7411C47.5543 15.9895 49.3025 15.2196 51.1212 14.7429C52.8759 14.2849 54.484 13.3121 56.3009 13.0691C56.3559 13.1741 56.4153 13.2786 56.47 13.3796C56.5413 13.1387 56.6127 12.8977 56.707 12.5831C56.9527 12.7036 57.1518 12.7974 57.3468 12.8955C58.0112 11.6068 59.6806 12.3408 60.6314 11.5164C60.9778 11.2148 61.6619 11.2376 62.1834 11.0956C62.5042 11.0103 62.8122 10.8868 63.1266 10.7825C63.428 10.6795 63.7289 10.5726 64.0303 10.4696C64.5947 10.2755 65.1544 10.078 65.7204 9.89963C66.4818 9.65712 67.2328 9.35239 68.0158 9.23025C68.2884 9.18567 68.6401 9.60357 69.0658 9.88706C68.6202 8.37126 69.9019 8.77021 70.5956 8.59022C72.0419 8.20822 73.4977 7.87664 74.9765 7.51494C75.0575 7.61323 75.1738 7.75923 75.1838 7.774C77.8985 6.57376 80.5594 5.7867 83.5208 5.92937C83.6792 5.17676 84.2583 5.00095 85.2609 5.58363C85.2191 5.39417 85.1814 5.24386 85.1541 5.11221C88.9975 4.40618 92.8417 3.70006 96.4782 3.03168C96.4366 3.1785 96.3612 3.46736 96.2823 3.75658C96.4498 3.75871 96.6169 3.76482 96.7844 3.76694C97.1825 2.66463 97.1791 2.6729 98.3975 3.04687C98.5791 3.10288 98.9352 3.10094 98.9956 3.01148C99.5371 2.21847 100.191 2.5016 100.953 2.64279C101.38 2.72443 101.938 2.38857 102.405 2.18504C103.25 1.81508 104.098 1.80872 104.991 1.93608C105.249 1.97212 105.571 1.80766 105.83 1.67745C106.464 1.35733 107.372 1.57815 107.543 2.32762C107.749 1.02407 108.813 1.35893 109.53 1.23581C110.282 1.10509 111.073 1.39749 111.869 1.09994C112.106 1.01165 112.506 1.38881 112.805 1.34934C113.937 1.20229 115.052 0.969967 116.169 0.769018C116.422 1.24875 116.659 1.69467 116.867 2.08809C115.935 1.96876 114.943 1.64618 114.005 1.76088C111.761 2.03713 109.551 2.59466 107.304 2.8949C105.808 3.09616 104.278 3.05578 103.096 3.10529C102.3 3.39892 101.764 3.69679 101.196 3.7764C100.698 3.84873 100.166 3.67542 99.4473 3.58106C99.5138 3.50282 99.3012 3.86154 99.2148 3.839C96.9991 3.30117 95.0602 5.64214 92.9923 4.58625C92.4774 4.79485 92.1003 5.01266 91.6922 5.10319C90.3851 5.38742 89.0593 5.61429 87.746 5.8794C86.2516 6.17945 84.7157 6.20691 83.2655 6.84649C82.5559 7.16267 81.6089 7.0212 80.5697 7.09519C80.5975 7.025 80.5068 7.24821 80.5068 7.24821C79.5043 7.45681 78.6124 7.63 77.7288 7.84188C77.4413 7.91178 77.186 8.16026 76.9025 8.18224C75.7784 8.28101 74.9049 9.37807 73.6122 8.88138C73.4518 8.81916 73.0983 9.30748 72.7898 9.37958C71.4844 9.67946 70.1388 9.84512 68.857 10.2019C67.6949 10.5222 66.5868 11.0268 65.4574 11.4506C65.3433 11.4943 65.1946 11.5021 65.1094 11.5704C64.6191 11.9663 63.8192 11.0536 63.3819 11.9939C63.2275 12.3228 62.2554 11.8199 62.0271 12.5324C61.8173 12.4201 61.6028 12.3042 61.6497 12.3309C61.0444 12.6796 60.639 13.0468 60.1597 13.1725C59.064 13.4582 57.7305 13.3654 56.8829 13.9177C56.1133 14.4182 55.2547 14.5326 54.4938 14.9491C53.4335 15.5278 52.2171 15.8776 51.0512 16.2894C50.9197 16.335 50.6986 16.1565 50.8044 16.2007C49.7983 16.6273 48.9563 17.0247 48.0839 17.3422C47.1353 17.6876 46.1523 17.9574 45.2667 18.2327C44.8203 18.545 44.1998 19.1247 44.0642 19.048C43.4082 18.6662 43.2223 19.572 42.7175 19.372C42.1955 20.5942 40.6483 20.1007 39.8023 20.8348C38.7671 21.7352 37.2173 21.7602 36.0732 22.6286C35.4503 23.1019 34.5404 23.5222 33.7547 23.7871C31.9039 24.4175 30.4337 25.6131 28.6445 26.328C27.1211 26.9358 25.8662 28.172 24.3204 28.6515C22.881 29.0961 22.2368 30.4103 20.7006 30.7306C19.866 30.9056 19.3209 32.0749 18.4685 32.4576C16.7887 33.2084 15.5206 34.4025 14.0836 35.4126C12.8059 36.307 11.5587 37.2416 10.3506 38.2118C9.63714 38.7855 9.04249 39.4852 8.35889 40.0915C8.2221 40.2127 7.9241 40.1808 7.86799 40.1908C7.41966 40.6099 6.88292 40.9831 6.53774 41.4625C5.84341 42.426 5.32751 43.4972 4.5903 44.4295C4.08951 45.06 3.51916 45.6147 3.41033 46.4175C3.40493 46.4497 3.0042 46.4445 2.79855 46.4543C2.96877 47.0259 2.50299 48.1551 2.00686 48.4963C1.83057 48.6177 1.63203 48.9868 1.70323 49.0782C2.1373 49.6496 2.00187 50.1585 1.67961 50.7305C1.59837 50.8776 1.88652 51.1914 2.03138 51.4808C1.82093 51.5702 1.59827 51.6689 1.38389 51.7627C1.3915 51.8766 1.36185 51.9708 1.40036 52.0023C1.84258 52.3592 2.23531 52.7056 1.81715 53.3273C1.77902 53.3828 1.37219 54.1537 2.25377 54.215C2.40453 54.2267 2.4543 55.1156 2.56757 55.6893C3.39306 55.6774 3.83321 56.0147 3.3429 56.8696C4.73226 56.9921 6.43513 58.2527 6.33224 58.6948C7.08421 59.2367 7.64772 59.743 8.31382 60.0961C8.87284 60.3932 9.56431 60.4865 10.1776 60.7145C11.5778 61.2316 13.0433 61.6586 14.3177 62.359C14.9434 62.7045 15.5755 62.6932 16.1436 62.9102C17.2344 63.3294 18.5883 63.1984 19.4583 63.7753C20.3946 64.3966 21.3901 64.2046 22.3299 64.4418C23.5856 64.7565 24.8921 64.9273 26.1894 65.0951C27.2952 65.2396 28.4186 65.2992 29.6302 65.4048C29.593 65.6778 29.5606 65.9542 29.5185 66.2633C31.6314 65.3243 32.3398 65.578 33.3732 66.7034C33.6337 65.671 34.5293 65.7823 35.1909 66.0092C36.9839 66.6233 38.8616 66.2472 40.6788 66.4235C41.8031 66.5345 43.0811 67.0604 44.0001 66.7261C45.0632 66.341 45.9641 67.5436 46.9378 66.6022C47.1415 66.4066 47.9916 66.7957 48.5555 66.847C48.7688 66.868 49.0106 66.617 49.2275 66.6297C50.7539 66.718 52.2801 66.8459 53.8039 66.9503C53.9503 66.9625 54.1055 66.8908 54.2594 66.8904C55.486 66.8876 56.7135 66.8927 57.9448 66.8934C58.09 66.8939 58.2586 66.9078 58.385 66.8549C59.8854 66.2377 61.4406 66.5564 62.9768 66.5288C63.8062 66.5126 64.6369 66.425 65.468 66.4244C65.767 66.4245 66.0648 66.5791 66.3 66.6413C66.5834 66.5758 66.8551 66.4838 67.1378 66.454C68.1729 66.3448 69.2117 66.2709 70.2468 66.1617C71.6734 66.0113 73.1339 65.6001 74.5092 65.7557C75.7417 65.8948 76.8784 65.4544 78.0319 65.5939C79.8588 65.8167 81.5896 65.2148 83.3772 65.1528C83.6134 65.1438 83.8531 65.249 84.0952 65.2907C84.2971 65.3248 84.5456 65.4332 84.6923 65.3662C86.3297 64.5882 88.108 64.7251 89.8436 64.55C91.5714 64.3757 93.2879 64.0997 95.0133 63.9019C96.0738 63.7822 97.1414 63.7368 98.207 63.6244C98.4679 63.5969 98.7108 63.3972 98.9755 63.3653C99.6977 63.2891 100.427 63.2834 101.148 63.1995C102.63 63.0313 104.114 62.8393 105.592 62.6359C106.585 62.4995 107.575 62.3397 108.563 62.1603C110.241 61.8567 111.922 61.2838 113.589 61.2821C115.031 61.2803 116.421 60.3583 117.896 61.0455C118.095 61.1392 118.564 60.6664 118.945 60.5708C120.432 60.1964 121.923 59.8255 123.431 59.532C125.512 59.1265 127.619 58.8371 129.694 58.4125C130.994 58.1488 132.248 57.7 133.539 57.3898C134.518 57.156 135.53 57.0413 136.513 56.815C137.565 56.5735 138.594 56.2434 139.644 55.9862C140.558 55.7633 141.498 55.6285 142.4 55.3791C143.489 55.0744 144.547 54.6858 145.628 54.3424C146.487 54.0697 147.342 53.7936 148.209 53.5518C148.855 53.3729 149.526 53.2705 150.17 53.0839C151.544 52.6858 152.907 52.2651 154.263 51.8253C154.655 51.701 154.994 51.4238 155.389 51.3228C155.71 51.2415 156.074 51.3178 156.537 51.3244C156.534 51.2931 156.51 51.0661 156.503 50.964C157.813 50.4222 159.069 49.8624 160.36 49.3782C161.371 48.9986 162.418 48.714 163.452 48.3835C163.788 48.2767 164.148 48.1913 164.447 48.0214C165.622 47.3594 166.753 46.6228 167.954 45.9938C168.878 45.5085 169.878 45.1459 171.017 44.6499C171.359 43.8463 172.228 43.4579 173.392 43.2323C173.957 43.1213 174.396 42.4459 174.896 42.0252C175.644 41.3964 176.357 40.7356 177.145 40.158C178.091 39.4607 179.152 38.8899 179.649 37.797C179.705 37.6684 180.177 37.7254 180.326 37.5871C180.657 37.2674 180.906 36.8771 181.194 36.5183C181.963 35.5589 182.724 34.6003 183.512 33.6546C183.567 33.5895 183.788 33.6374 183.59 33.6464C183.921 32.9824 184.379 32.4475 184.426 31.8965C184.562 30.181 186.532 28.7626 185.503 26.8849C186.31 25.783 185.366 24.7945 185.3 23.7491C185.243 22.8767 184.837 22.0333 184.618 21.1662C184.549 20.8886 184.635 20.5749 184.554 20.3065C184.493 20.0993 184.289 19.923 184.118 19.7551C183.887 19.5262 183.574 19.3535 183.385 19.1043C183.14 18.782 183.014 18.3838 182.782 18.0523C182.321 17.4005 181.881 16.7309 181.323 16.1487C180.76 15.5593 180.029 15.1022 179.433 14.5321C178.691 13.827 177.725 13.3868 177.113 12.4661C176.644 11.764 175.424 11.4574 174.507 11.0238C173.03 10.3172 171.552 9.60658 170.03 8.97582C169 8.55033 167.893 8.27138 166.838 7.89608C166.5 7.7774 166.231 7.47738 165.893 7.39836C164.914 7.16521 163.902 7.03852 162.926 6.78938C162.501 6.67982 162.14 6.38169 161.799 6.196C160.931 6.12934 159.918 6.24806 159.1 5.95052C157.459 5.36007 155.777 5.21298 154.043 5.11497C153.294 5.07126 152.584 4.63573 151.834 4.56061C149.793 4.34857 147.737 4.20139 145.685 4.09727C144.275 4.02445 142.842 4.15582 141.443 4.02247C139.227 3.817 137.019 4.19616 134.823 4.13113C133.362 4.0873 131.894 4.59037 130.384 3.98996C129.741 3.73334 128.687 4.3707 127.802 4.48779C125.555 4.78411 123.295 4.95515 121.057 5.28617C119.108 5.57477 117.187 6.03849 115.243 6.37013C114.344 6.52427 113.423 6.54234 112.469 6.62714C112.402 6.99027 110.598 7.35857 110.258 7.13329C108.855 7.47508 107.651 7.7722 106.447 8.0654C105.936 8.19044 105.426 8.31939 104.91 8.42922C102.867 8.86226 100.825 9.30713 98.7696 9.70588C97.5934 9.9328 96.1745 9.78575 95.2756 10.3474C94.3303 10.9377 93.379 11.0895 92.4024 11.2953C91.1422 11.5627 90.024 12.1792 88.695 12.3351C87.3967 12.4879 86.1642 13.1046 84.8758 13.4383C84.2639 13.5977 83.5942 13.5496 82.9525 13.6331C82.0981 13.747 82.1641 13.202 82.1183 12.728L82.1263 12.7232Z" fill="#FF5693"/>
<path d="M82.1259 12.7192C82.0612 13.1494 82.0014 13.5791 81.8928 14.3026C81.5319 14.5068 80.9826 15.0515 79.8921 14.8064C79.3789 14.6905 78.6446 15.4009 77.9779 15.6691C77.7418 15.7652 77.4136 15.6573 77.0292 15.6385C77.0241 15.6707 76.9625 15.9225 76.9057 16.1738C76.2114 16.1798 72.5537 17.61 72.2418 17.7774C70.8135 18.5374 69.2714 19.1352 67.8995 19.9684C66.3614 20.8981 64.962 22.015 63.4194 23.1075C63.1082 21.1581 64.8784 20.3463 66.0297 19.5878C66.8069 19.0746 67.5425 18.463 68.3577 17.9774C68.8835 17.6647 69.564 17.32 70.1357 17.3626C71.1011 17.4309 71.4968 16.6335 72.3742 16.4499C74.2543 16.0538 75.9766 15.0373 77.7876 14.3201C79.2187 13.7538 80.6793 13.2595 82.1271 12.731L82.1259 12.7192Z" fill="#FF5693"/>
<path d="M117.872 1.61012C119.13 0.401342 120.05 0.331959 120.974 1.4136C119.947 1.47837 118.929 1.54219 117.872 1.61012Z" fill="#FF5693"/>
</svg>
