<svg width="146" height="104" viewBox="0 0 146 104" fill="none" xmlns="http://www.w3.org/2000/svg">
<path d="M144.308 53.3524C143.858 53.5107 143.826 54.5114 143.017 53.9921C142.965 53.9594 142.573 54.3152 142.589 54.3428C142.868 54.8178 142.569 55.094 142.388 55.5107C142.129 56.1171 141.727 56.5203 141.127 56.2293C141.052 56.537 140.891 56.8453 140.911 57.1395C141.023 58.553 141.042 58.5511 139.654 58.2062C139.202 58.7876 140.034 60.1043 138.506 60.1703C138.575 60.4786 138.655 60.8402 138.737 61.2062C138.652 61.1485 138.565 61.0869 138.48 61.0293C138.165 61.4081 137.874 61.8152 137.523 62.1651C137.062 62.6248 136.553 63.0369 135.995 63.5305C135.964 63.476 136.068 63.6651 136.083 63.6927C135.689 64.1023 135.356 64.4497 134.924 64.8985C134.053 64.71 134.025 64.7594 133.898 67.0632C132.35 66.9696 130.83 68.1978 130.911 69.0818C130.436 69.4465 130.124 69.6895 129.808 69.9343C129.869 70.0157 129.93 70.0971 129.989 70.1747C129.666 70.158 129.342 70.1375 129.126 70.1266C128.713 70.4292 129.854 71.3741 128.564 71.1209C128.527 71.1112 128.347 71.4561 128.364 71.6221C128.528 73.1305 127.783 72.6766 126.95 72.1702C126.947 72.5407 126.944 72.8349 126.945 73.0933C126.129 73.0317 125.722 73.3984 125.428 74.1715C125.207 74.7529 124.851 75.517 123.953 75.1138C123.925 75.5997 123.897 76.0997 123.841 77.0042C123.019 75.358 122.702 77.0465 121.955 76.7465C122.153 77.042 122.298 77.201 122.378 77.3901C122.443 77.5561 122.438 77.7503 122.466 77.9311C122.296 77.9356 122.115 77.9779 121.958 77.9445C121.483 77.8343 119.558 78.9112 119.425 79.3997C119.407 79.4644 119.557 79.5779 119.74 79.7984C119.362 79.6785 119.132 79.6067 118.965 79.5477C118.183 80.5086 117.44 81.4304 116.626 82.4323C115.06 82.1682 114.755 82.4663 115.001 84.5124C114.694 84.0727 114.513 83.8086 114.186 83.3336C113.783 83.8669 113.501 84.381 113.089 84.7451C112.748 85.0477 112.265 85.3336 111.826 85.3631C111.127 85.4137 109.714 86.2547 109.549 86.9336C109.526 87.0432 109.665 87.19 109.775 87.4201C109.447 87.3291 109.111 87.1349 109.006 87.2201C108.327 87.7611 107.705 88.3714 107.055 88.949C106.933 89.0547 106.776 89.1791 106.629 89.1938C106.188 89.2432 104.935 89.5797 104.48 89.8746C104.332 89.9714 104.303 90.2752 104.155 90.3387C103.828 90.4816 103.459 90.5316 103.406 90.5432C102.85 90.9445 102.529 91.2727 102.142 91.4355C100.281 92.213 98.3835 92.9092 96.5431 93.7265C96.2778 93.8457 96.2444 94.4778 96.1848 94.6547C95.6854 94.5925 95.3374 94.4521 95.0598 94.5374C94.6246 94.6758 94.2425 94.9707 93.8393 95.2015C93.8938 95.3143 93.9438 95.429 93.9964 95.538C93.8021 95.4463 93.6079 95.3553 93.3617 95.2419C93.138 95.9149 92.9906 96.563 92.0098 95.8996C91.6829 95.679 90.64 95.7835 90.6797 96.5636C89.2541 96.9252 87.8778 97.2669 86.5996 97.5893C86.5451 98.0951 86.506 98.5181 86.4631 98.9431C86.381 98.9418 86.2932 98.938 86.2112 98.9367C86.197 98.7072 86.1836 98.4777 86.1708 98.3245C84.7913 98.4758 83.4182 98.5809 82.0644 98.8085C81.8208 98.8476 81.6599 99.3758 81.4291 99.7264C80.3137 99.1111 79.1285 99.1957 78.015 100.105C77.9285 100.177 77.7772 100.28 77.7138 100.253C76.4407 99.6758 75.2952 100.334 74.0984 100.572C73.742 100.641 73.3285 100.42 72.9484 100.33C72.8215 100.726 72.7144 101.051 72.5984 101.413C71.6683 100.466 71.1753 100.517 69.4747 101.725C69.3414 101.509 69.21 101.298 69.1266 101.172C67.5016 101.367 65.851 100.139 64.4972 101.253C63.844 101.056 63.3151 100.823 62.7632 100.749C61.2376 100.541 59.703 100.407 58.1767 100.223C57.0081 100.08 55.8434 99.888 54.6767 99.7393C53.4761 99.5899 52.4498 98.9829 51.7344 98.7136C51.0197 98.8226 50.5697 99.0438 50.2953 98.9072C49.5127 98.5162 48.8377 97.9002 48.0518 97.5245C46.3851 96.729 44.6935 95.9675 42.9672 95.3111C42.1589 95.0015 41.4621 94.1355 40.9172 94.0912C39.9704 94.0143 39.6217 93.3605 38.9954 93.013C38.4127 92.6912 37.7929 92.4086 37.2865 91.9893C35.6762 90.6682 34.1179 89.2836 32.5275 87.94C31.9948 87.4887 31.4147 87.0893 30.8775 86.6394C30.1615 86.0394 29.4243 85.4483 28.7718 84.7797C28.3198 84.3157 28.0384 83.6881 27.6134 83.1939C25.959 81.2618 24.4096 79.2689 23.2635 76.9734C22.8212 76.083 22.1462 75.3086 21.6346 74.451C21.4904 74.2055 21.6128 73.8119 21.484 73.5465C21.3494 73.2542 21.043 73.0491 20.8545 72.7779C20.6109 72.4279 20.3475 72.0766 20.202 71.683C19.8455 70.7202 19.5148 69.7478 19.2494 68.7593C19.0866 68.1523 19.2205 67.4228 18.9366 66.8972C17.8987 64.9613 18.1853 62.7715 17.643 60.7414C17.3943 59.8081 17.6154 58.7517 17.5571 57.7536C17.5398 57.4536 17.2923 57.1671 17.2712 57.1133C17.5308 54.953 17.6622 52.9402 18.0468 50.9748C18.3225 49.571 18.1955 48.0582 19.0096 46.7678C19.1699 46.5172 19.2853 46.1652 19.25 45.8813C19.1398 44.9947 19.7289 44.3973 20.0173 43.6697C20.3237 42.8915 20.693 42.8178 21.4064 43.1069C21.7045 43.2294 22.1333 43.0165 22.5026 42.9672C22.7981 42.9268 23.116 42.821 23.391 42.8851C24.0577 43.0435 24.7051 43.2871 25.4673 43.5281C25.4135 43.0268 25.3891 42.8204 25.3481 42.448C26.8243 43.7217 28.2948 43.3044 29.7621 42.8781C30.6089 42.6306 31.5448 43.0569 32.3589 42.3858C33.4948 41.448 35.0038 41.7589 36.3243 41.4101C37.7659 41.0287 39.0499 40.0659 39.1352 39.2602C40.0435 38.5852 41.6018 39.4473 41.9326 37.5993C42.0319 37.0377 43.1012 36.6826 43.6633 36.1634C44.2133 35.6493 44.7069 35.066 45.1761 34.4679C45.2935 34.316 45.2082 34.014 45.2326 33.7839C45.2556 33.5634 45.2204 33.2801 45.3428 33.141C45.8133 32.5955 46.3358 32.0967 46.8928 31.5269C46.6909 31.3666 46.5281 31.2339 46.3761 31.1166C47.0107 30.2089 47.271 29.325 46.612 28.2756C46.1697 27.5673 45.905 26.7513 45.564 25.984C45.2928 25.3718 44.1281 25.6397 44.2435 24.6442C43.8614 24.7327 43.4832 24.8199 43.1005 24.9083C43.1531 24.8346 43.2101 24.7596 43.2627 24.6865C42.448 24.3122 41.6601 23.8224 40.8018 23.6045C40.2749 23.4724 39.4191 22.7981 39.048 23.9615C39.0409 23.9788 38.4858 23.8237 38.1288 23.734C38.132 23.9006 38.1371 24.1436 38.1396 24.4064C37.5358 24.1891 36.9826 23.9897 36.4236 23.7885C36.3999 23.9705 36.3756 24.1532 36.3499 24.3551C36.1191 24.2205 35.864 24.0718 35.4217 23.8147C35.4935 24.2756 35.5339 24.5237 35.5801 24.7981C35.1333 24.6628 34.741 24.5442 34.589 24.4987C33.9499 24.8846 33.3974 25.2231 32.839 25.5583C32.7551 25.4667 32.6653 25.3731 32.5814 25.2814C32.5602 25.4955 32.541 25.7141 32.5134 25.9846C32.2378 25.7961 31.9737 25.6122 31.7807 25.4776C31.2878 26.075 30.8089 26.6718 30.3147 27.2551C29.9551 27.6801 29.8679 28.6256 28.8852 27.8622C28.7 27.7199 27.7948 28.2833 27.4064 28.6955C27.0506 29.0711 26.9525 29.6852 26.6987 30.2936C26.5814 30.2397 26.2506 30.082 25.8147 29.8756C25.8865 30.4468 25.9384 30.8339 25.9705 31.0852C24.3442 31.1083 24.2468 32.8538 23.2282 33.3711C23.2474 33.8339 23.3603 34.3025 23.2391 34.6999C23.2013 34.8352 22.5705 34.7916 22.2244 34.8275C21.9558 35.1544 21.6468 35.5256 21.3192 35.9236C21.5071 36.132 21.7782 36.4422 22.2231 36.9384C20.6507 36.4172 21.0366 37.3582 21.0443 37.9121C20.7558 37.9345 20.4718 37.9557 20.0821 37.9897L20.3423 38.6493C20.0051 39.2287 19.7821 39.8057 19.3853 40.2217C19.1712 40.4448 18.6654 40.3903 18.2872 40.4537C17.909 40.5166 17.5276 40.5711 17.0263 40.6493C17.0052 40.5711 16.9007 40.2095 16.7904 39.8211C15.7962 40.9954 15.4276 39.539 14.8001 39.3595C13.8142 39.073 12.9981 38.1717 12.0116 37.9326C11.3417 37.7659 11.043 37.4473 10.6334 37.0288C10.1591 36.5441 9.56161 36.1852 9.01291 35.7788C7.82637 34.8993 6.60843 34.0608 5.84882 32.7205C5.75203 32.548 5.3091 32.5692 4.98602 32.4903C4.92961 32.2871 4.94241 31.7737 4.72447 31.6346C3.35652 30.7692 2.44373 29.5609 1.74437 28.1295C1.61232 27.8557 1.145 27.7423 0.980255 27.6397C0.703339 27.1692 0.418732 26.7775 0.244385 26.3474C0.0879669 25.9634 0.16745 25.4474 -0.0639648 25.141C-0.41716 24.6711 -1.04665 24.4013 -1.36203 23.9173C-1.64151 23.4897 -1.65689 22.8917 -1.80626 22.2936C-2.34471 21.2212 -3.17484 20.0904 -3.47292 18.8366C-3.76329 17.6276 -4.48637 16.6225 -4.82803 15.4289C-5.16074 14.2699 -5.51009 12.9597 -6.07932 11.7841C-6.69341 10.5206 -6.98956 9.10266 -7.42546 7.75395C-7.30046 7.69497 -7.1748 7.636 -7.0498 7.57702C-7.37672 7.40395 -7.70172 7.2251 -7.71904 7.21741C-8.37032 5.03345 -8.95428 3.06743 -9.53697 1.10526C-9.84467 1.05462 -10.1504 0.997571 -10.4581 0.946289C-10.8921 2.32641 -10.0075 3.29115 -9.44083 4.41037C-9.53697 4.56807 -9.83568 4.84435 -9.78249 5.0155C-9.61453 5.56293 -9.31454 6.06805 -9.07481 6.57767C-8.83122 7.52253 -8.59532 8.50843 -8.31647 9.48214C-8.15045 10.0738 -7.91583 10.643 -7.71455 11.2257C-7.60942 11.5296 -7.53314 11.8443 -7.40686 12.1398C-7.15109 12.7392 -6.73572 13.3045 -6.63187 13.9206C-6.3947 15.3475 -5.77417 16.5795 -5.22418 17.8879C-4.70047 19.1295 -4.06522 20.2885 -3.48189 21.4878C-3.3819 21.693 -3.60623 22.0596 -3.64021 22.193C-3.03316 23.3058 -2.48703 24.3609 -1.8819 25.3833C-1.53831 25.9628 -1.21332 26.6878 -0.28833 26.2609C-0.984482 27.0243 -0.752411 27.6378 0.0610352 28.3C0.725784 28.8436 1.15205 29.6916 1.64563 30.432C2.50269 31.7153 3.41742 32.8794 4.79626 33.7115C5.56293 34.1717 6.11998 35.0358 6.66676 35.7884C7.68791 37.198 9.14111 37.8909 10.6155 38.7095C11.4347 39.1679 12.2251 39.8345 13.1436 40.2537C14.4565 40.8576 15.7257 41.5698 17.0552 42.1435C17.3904 42.289 17.8795 42.0819 18.2802 42.039C19.2776 43.2665 17.7244 43.8505 17.5738 44.8069C17.3462 46.2351 16.9487 47.6338 16.7013 49.0601C16.6334 49.471 17.2212 50.0736 16.2706 50.1075C16.2891 50.2877 16.2975 50.4665 16.3212 50.6492C16.4693 51.8376 16.1577 52.9197 15.65 53.9787C15.5616 54.1671 15.8712 54.5152 15.8751 54.7915C15.8892 56.9056 15.718 59.0357 15.9122 61.1318C16.059 62.7427 16.6456 64.3145 17.0347 65.9068C17.25 66.7811 17.459 67.6626 17.7385 68.5407C17.7988 68.9241 17.7968 69.3324 17.9359 69.6856C18.5026 71.1209 19.0885 72.5446 19.7051 73.9606C20.9994 76.9362 22.6481 79.715 24.5705 82.3137C25.2564 83.2368 26.1865 83.9778 26.9974 84.8041C27.6775 85.4945 28.532 86.0926 28.9948 86.9124C30.066 88.8111 31.9602 89.747 33.489 91.1047C34.1704 91.7137 34.8313 92.3547 35.5602 92.9015C35.9076 93.1624 36.3909 93.2444 36.8198 93.4066C36.9576 93.6348 37.0736 94.0496 37.3397 94.213C38.5711 94.9643 39.8172 95.7149 41.121 96.3322C43.1262 97.2816 45.1704 98.1585 47.2249 99.0021C49.0832 99.7604 50.9511 100.519 52.8678 101.11C53.9928 101.458 55.2178 101.487 56.3934 101.671C56.5517 101.694 56.6979 101.785 56.8549 101.819C58.7081 102.201 60.5517 102.801 62.4145 102.867C63.4408 102.903 64.4164 102.969 65.4401 103.083C67.2722 103.29 69.2286 103.276 70.9997 102.831C72.374 102.485 73.6984 102.596 75.0362 102.412C75.892 102.296 76.7221 102.03 77.5695 101.844C78.315 101.68 79.0657 101.527 79.815 101.385C80.3144 101.289 80.815 101.22 81.2599 101.145C81.6682 101.171 82.2778 101.391 82.4733 101.194C83.4624 100.223 84.7823 100.446 85.9214 100.063C86.4977 99.8694 87.049 99.6136 87.6265 99.4239C88.5272 99.1303 89.4413 98.8707 90.3496 98.6079C90.9355 98.4393 91.5515 98.3348 92.1156 98.1124C93.2694 97.6566 94.3919 97.1226 95.547 96.6713C96.1406 96.4374 96.4547 95.5072 97.3162 95.954C97.9322 94.4156 99.5053 94.8162 100.628 94.2964C102.364 93.4912 104.08 92.6271 105.762 91.7137C106.082 91.5393 106.129 90.8688 106.451 90.6887C107.547 90.0739 108.747 89.6387 109.837 89.0118C110.707 88.515 111.454 87.822 112.278 87.247C113.023 86.7278 113.773 86.2112 114.565 85.7644C115.196 85.4047 115.999 85.2791 116.072 84.3445C116.078 84.2746 116.094 84.1439 116.112 84.1413C118.18 83.9246 119.01 81.933 120.593 80.9868C121.963 80.1676 123.008 78.8195 124.235 77.7458C124.601 77.4234 125.117 77.2824 125.522 76.9977C125.661 76.8997 125.675 76.6208 125.777 76.3311C125.953 76.1945 126.283 75.9734 126.571 75.7061C127.29 75.0484 127.995 74.367 128.704 73.6984C128.733 73.6734 128.787 73.6657 128.806 73.6394C129.529 72.4715 130.632 71.7529 131.678 70.9035C133.019 69.8183 133.945 68.2151 135.05 66.8344C135.297 66.5254 135.557 66.2356 135.856 65.9837C136.683 65.1395 137.988 64.3991 138.198 63.4241C138.406 62.4446 139.162 62.4151 139.552 62.0549C140.463 61.2158 140.669 59.9402 141.74 59.153C142.23 58.7915 142.861 57.7171 143.011 56.737C143.051 56.4722 143.653 56.2972 144.052 56.0434C143.972 55.9504 143.826 55.7876 143.63 55.5581C144.119 55.2062 144.601 54.8581 145.03 54.5492C145.012 54.2351 144.995 53.9255 144.98 53.6197C144.762 53.5287 144.541 53.4428 144.323 53.3517L144.308 53.3524ZM39.8185 25.1102C40.8749 25.4417 41.8922 25.7115 42.8665 26.0897C43.5172 26.341 44.3332 26.609 44.6678 27.1288C45.4281 28.3012 45.6652 29.7525 45.2531 31.066C44.9569 32.0173 44.1351 32.8025 43.4935 33.741C43.8755 34.1615 43.9454 34.6422 42.9223 35.0031C42.4589 35.1666 41.9794 35.591 41.7486 36.0275C41.3781 36.7294 41.0755 37.2621 40.28 36.6935C40.2428 37.0486 40.2057 37.4038 40.1499 37.9198C39.8114 37.5595 39.639 37.3781 39.3973 37.1185C39.2679 37.5198 39.1832 37.7781 39.1134 37.9788C38.7236 37.9025 38.3615 37.8345 37.8929 37.7409C37.9871 38.1736 38.0608 38.4948 38.155 38.9275C37.7941 38.7916 37.5461 38.698 37.1723 38.5531L37.6095 39.6608C37.5557 39.6819 37.5057 39.7018 37.4518 39.723C37.2929 39.5031 37.1345 39.2826 37.0826 39.2121C36.6916 39.3999 36.3352 39.7134 36.1698 39.6345C35.0249 39.0794 35.1031 39.8589 35.1217 40.2595C34.4358 40.3191 33.8211 40.2928 33.2512 40.4416C32.6813 40.5896 32.1628 41.0864 31.6064 41.1095C29.7044 41.189 29.7032 41.1364 28.8378 42.1403C28.3968 41.5326 24.6987 41.0595 24.1276 41.5435C24.0994 41.5691 24.0833 41.614 24.0744 41.6512C23.8679 42.4665 23.484 41.8454 23.1949 41.7441C22.7423 41.5819 22.3237 41.3351 21.8712 41.173C21.4013 41.0037 20.9077 40.896 20.4257 40.7557C20.4096 40.7525 20.4237 40.6416 20.4244 40.5454C20.7609 40.4986 21.1013 40.4505 21.4423 40.4025C21.3648 40.3275 21.2814 40.2499 21.2019 40.1711C23.3641 36.6076 25.2538 32.8544 28.7621 30.2711C29.0718 30.0237 29.5198 29.8468 29.7794 29.5192C31.0025 27.9763 32.7198 27.284 34.5025 26.7583C35.9166 26.3436 37.1788 25.3128 38.7319 25.5058C39.3467 25.5795 39.8396 25.8936 39.8191 25.1006L39.8185 25.1102Z" fill="#212121"/>
</svg>
