<svg width="37" height="45" viewBox="0 0 37 45" fill="none" xmlns="http://www.w3.org/2000/svg">
<path d="M8.50483 0.254673L8.24994 0.509556V2.10038V3.6912H6.65033C4.81342 3.6912 4.18061 3.79667 3.27533 4.23612C2.45795 4.62284 1.62299 5.4578 1.23627 6.27518C0.664983 7.45292 0.69135 6.44217 0.69135 24.3543C0.69135 35.5515 0.717718 40.825 0.78803 41.1853C0.946233 42.0818 1.47358 43.0398 2.15912 43.6902C2.49311 43.9978 2.95893 44.3582 3.20502 44.49C4.19819 45.0262 3.37201 44.9998 18.6035 44.9998H32.5165L33.1845 44.7801C34.7138 44.2615 35.8476 43.0662 36.2519 41.5281C36.3486 41.1678 36.3749 38.0213 36.3749 24.3894C36.3749 6.0994 36.4101 7.20682 35.8652 6.20487C35.7333 5.95877 35.373 5.49295 35.0654 5.15897C34.6259 4.69315 34.3447 4.48221 33.791 4.21854C32.8593 3.7703 32.3496 3.6912 30.4687 3.6912H28.9042V2.19706C28.9042 0.254673 28.79 -0.000209808 27.9374 -0.000209808C27.0849 -0.000209808 26.9706 0.254673 26.9706 2.19706V3.6912H23.7187H20.4667V2.19706C20.4667 0.254673 20.3525 -0.000209808 19.4999 -0.000209808C18.6474 -0.000209808 18.5331 0.254673 18.5331 2.19706V3.6912H14.3671H10.1923L10.166 2.11795L10.1396 0.535923L9.88471 0.272251C9.66498 0.0437355 9.55951 -0.000209808 9.19037 -0.000209808C8.83881 -0.000209808 8.72455 0.0437355 8.50483 0.254673ZM8.24994 7.21561C8.24994 8.12967 8.2851 8.86795 8.33783 8.97342C8.54877 9.36014 9.33979 9.53592 9.72651 9.26346C10.1308 8.98221 10.1835 8.72733 10.1835 7.11893V5.62479H14.3583H18.5331V7.21561V8.80643L18.832 9.10526C19.0781 9.35135 19.2011 9.40408 19.4999 9.40408C19.7988 9.40408 19.9218 9.35135 20.1679 9.10526L20.4667 8.80643V7.21561V5.62479H23.7187H26.9706V7.21561V8.80643L27.2695 9.10526C27.5156 9.35135 27.6386 9.40408 27.9374 9.40408C28.2363 9.40408 28.3593 9.35135 28.6054 9.10526L28.9042 8.80643V7.20682V5.60721L30.5566 5.65116C31.8046 5.67752 32.2968 5.73026 32.6132 5.84452C33.1581 6.03788 33.8613 6.67948 34.1601 7.24198L34.3974 7.69022L34.4238 24.2312L34.4414 40.7722L34.2568 41.282C33.9931 41.9676 33.3427 42.618 32.6484 42.8816L32.1474 43.0662L18.4189 43.0486L4.69037 43.0222L4.24213 42.7849C3.67963 42.4949 3.04682 41.7918 2.82709 41.2381C2.67768 40.8426 2.66889 40.1219 2.64252 24.7849C2.62494 13.8865 2.65131 8.55155 2.71283 8.14725C2.86225 7.1453 3.31928 6.46854 4.10151 6.03788C4.6728 5.72147 5.20893 5.65116 6.87006 5.63358L8.24994 5.62479V7.21561Z" fill="#FF5693"/>
</svg>
